<?xml version="1.0" encoding="utf-8"?>
<!-- Generator: Adobe Illustrator 13.0.0, SVG Export Plug-In . SVG Version: 6.00 Build 14948)  -->
<svg version="1.2" baseProfile="tiny" id="Layer_1" xmlns:svg="http://www.w3.org/2000/svg"
	 xmlns="http://www.w3.org/2000/svg" xmlns:xlink="http://www.w3.org/1999/xlink" x="0px" y="0px" width="121.721px"
	 height="71.07px" viewBox="0 0 121.721 71.07" xml:space="preserve">
<g>
	<g id="board">
		<rect id="boardoutline" x="0.288" y="0.288" fill="none" stroke="#000000" stroke-width="0.5" width="121.145" height="70.494"/>
	</g>
</g>
<g>
	<g transform="translate(124.262,-6.16)">
		<g transform="matrix(0,1,-1,0,0,0)">
			<g id="copper0_1_">
				<g transform="matrix(-1, 0, 0, 1, 34.56, 0)">
					<g>
						<g>
							<g>
								<g id="copper0">
									
										<rect id="square" x="12.24" y="11.16" transform="matrix(-2.547107e-006 -1 1 -2.547107e-006 5.4 23.4)" fill="none" stroke="#000000" stroke-width="3" width="4.319" height="-4.32"/>
									<circle id="connector0pin" fill="none" stroke="#000000" stroke-width="3" cx="14.4" cy="9" r="2.16"/>
									<circle id="connector1pin" fill="none" stroke="#000000" stroke-width="3" cx="14.4" cy="23.4" r="2.16"/>
								</g>
							</g>
							<g>
								
									<rect id="square_1_" x="12.24" y="11.16" transform="matrix(-2.547107e-006 -1 1 -2.547107e-006 5.4 23.4)" fill="none" stroke="#000000" stroke-width="3" width="4.319" height="-4.32"/>
								<circle id="connector0pin_1_" fill="none" stroke="#000000" stroke-width="3" cx="14.4" cy="9" r="2.16"/>
								<circle id="connector1pin_1_" fill="none" stroke="#000000" stroke-width="3" cx="14.4" cy="23.4" r="2.16"/>
							</g>
						</g>
					</g>
				</g>
			</g>
		</g>
	</g>
</g>
<g>
	<g transform="translate(106.944,56.0818)">
		<g id="copper0_2_">
			<circle id="nonconn0" cx="4.718" cy="4.718" r="3.118"/>
		</g>
	</g>
</g>
<g>
	<g transform="translate(6.144,5.68184)">
		<g id="copper0_3_">
			<circle id="nonconn0_1_" cx="4.718" cy="4.718" r="3.118"/>
		</g>
	</g>
</g>
<g>
	<g transform="translate(49.0228,-11.56)">
		<g transform="matrix(0,1,-1,0,0,0)">
			<g id="copper0_4_">
				<circle id="connector0pin_2_" fill="none" stroke="#000000" stroke-width="1.44" cx="39.24" cy="12.96" r="4.32"/>
				<circle id="connector1pin_2_" fill="none" stroke="#000000" stroke-width="1.44" cx="21.96" cy="12.96" r="4.32"/>
				<circle id="connector2pin" fill="none" stroke="#000000" stroke-width="1.44" cx="30.6" cy="26.64" r="4.32"/>
			</g>
		</g>
	</g>
</g>
<g>
	<g transform="translate(63.2752,17.6536)">
		<g id="copper0_5_">
			<g id="copper1">
				<circle id="connector1pad" fill="none" stroke="#000000" stroke-width="1.1338" cx="8.787" cy="10.634" r="1.701"/>
				<rect x="7.087" y="8.933" fill="none" stroke="#000000" stroke-width="1.1338" width="3.401" height="3.402"/>
				<circle id="connector0pad" fill="none" stroke="#000000" stroke-width="1.1338" cx="8.787" cy="3.546" r="1.701"/>
			</g>
		</g>
	</g>
</g>
<g>
	<g transform="translate(54.9624,43.7)">
		<g transform="matrix(1,0,0,1,0,0)">
			<g id="copper0_6_">
				<g id="copper1_1_">
					<circle id="connector0pin_3_" fill="none" stroke="#000000" stroke-width="1.44" cx="2.7" cy="2.7" r="1.98"/>
					<circle id="connector1pin_3_" fill="none" stroke="#000000" stroke-width="1.44" cx="24.3" cy="2.7" r="1.98"/>
				</g>
			</g>
		</g>
	</g>
</g>
<g>
	<g transform="translate(112.382,50.72)">
		<g transform="matrix(-1,0,0,-1,0,0)">
			<g id="copper0_7_">
				<rect id="square_2_" x="2.34" y="2.34" fill="none" stroke="#000000" stroke-width="1.44" width="3.96" height="3.96"/>
				<circle id="connector0pin_4_" fill="none" stroke="#000000" stroke-width="1.44" cx="4.32" cy="4.32" r="1.98"/>
				<circle id="connector3pin" fill="none" stroke="#000000" stroke-width="1.44" cx="25.92" cy="4.32" r="1.98"/>
				<circle id="connector1pin_4_" fill="none" stroke="#000000" stroke-width="1.44" cx="4.32" cy="11.52" r="1.98"/>
				<circle id="connector2pin_1_" fill="none" stroke="#000000" stroke-width="1.44" cx="25.92" cy="11.52" r="1.98"/>
			</g>
		</g>
	</g>
</g>
<g>
	<g transform="translate(65.7624,7.7)">
		<g id="copper0_8_">
			<g id="copper1_2_">
				<circle id="connector0pin_5_" fill="none" stroke="#000000" stroke-width="1.44" cx="2.7" cy="2.7" r="1.98"/>
				<circle id="connector1pin_5_" fill="none" stroke="#000000" stroke-width="1.44" cx="24.3" cy="2.7" r="1.98"/>
			</g>
		</g>
	</g>
</g>
<g>
	<g transform="translate(75.6655,40.4811)">
		<g transform="matrix(0.428879,-0.903362,0.903362,0.428879,0,0)">
			<g id="copper0_9_">
				<g id="copper1_3_">
					<circle id="connector0pin_6_" fill="none" stroke="#000000" stroke-width="1.44" cx="2.7" cy="2.7" r="1.98"/>
					<circle id="connector1pin_6_" fill="none" stroke="#000000" stroke-width="1.44" cx="24.3" cy="2.7" r="1.98"/>
				</g>
			</g>
		</g>
	</g>
</g>
<g>
	<g transform="translate(68.4624,1.76)">
		<g transform="matrix(0,1,-1,0,0,0)">
			<g id="copper0_10_">
				
					<rect x="6.408" y="12.168" transform="matrix(-2.547107e-006 -1 1 -2.547107e-006 -5.7597 23.0396)" fill="none" stroke="#000000" stroke-width="1.44" width="4.464" height="4.464"/>
				<circle id="connector0pad_1_" fill="none" stroke="#000000" stroke-width="1.44" cx="8.64" cy="14.4" r="2.232"/>
				<circle id="connector1pad_1_" fill="none" stroke="#000000" stroke-width="1.44" cx="15.84" cy="14.4" r="2.232"/>
				<circle id="connector2pad" fill="none" stroke="#000000" stroke-width="1.44" cx="23.04" cy="14.4" r="2.232"/>
			</g>
		</g>
	</g>
</g>
<g>
	<g transform="translate(99.9624,67.1)">
		<g transform="matrix(-1,0,0,-1,0,0)">
			<g id="copper0_11_">
				<g id="copper1_4_">
					<circle id="connector0pin_7_" fill="none" stroke="#000000" stroke-width="1.44" cx="2.7" cy="2.7" r="1.98"/>
					<circle id="connector1pin_7_" fill="none" stroke="#000000" stroke-width="1.44" cx="24.3" cy="2.7" r="1.98"/>
				</g>
			</g>
		</g>
	</g>
</g>
<g>
	<g transform="translate(96.3624,59.9)">
		<g transform="matrix(-1,0,0,-1,0,0)">
			<g id="copper0_12_">
				<g id="copper1_5_">
					<circle id="connector0pin_8_" fill="none" stroke="#000000" stroke-width="1.44" cx="2.7" cy="2.7" r="1.979"/>
					<circle id="connector1pin_8_" fill="none" stroke="#000000" stroke-width="1.44" cx="24.3" cy="2.7" r="1.979"/>
				</g>
			</g>
		</g>
	</g>
</g>
<g>
	<g transform="translate(43.2624,63.824)">
		<g transform="matrix(0,-1,1,0,0,0)">
			<g id="copper0_13_">
				
					<rect x="0.72" y="1.369" transform="matrix(2.578893e-006 1 -1 2.578893e-006 6.552 0.6482)" fill="none" stroke="#000000" stroke-width="1.44" width="4.464" height="4.463"/>
				<circle id="connector0pin_9_" fill="none" stroke="#000000" stroke-width="1.44" cx="3.024" cy="3.6" r="2.232"/>
				<circle id="connector1pin_9_" fill="none" stroke="#000000" stroke-width="1.44" cx="24.48" cy="3.6" r="2.232"/>
			</g>
		</g>
	</g>
</g>
<g>
	<g transform="translate(37.8624,35.6)">
		<g transform="matrix(0,1,-1,0,0,0)">
			<g id="copper0_14_">
				
					<rect id="square_3_" x="12.121" y="6.721" transform="matrix(-2.547107e-006 -1 1 -2.547107e-006 5.4002 23.3999)" fill="none" stroke="#000000" stroke-width="3" width="4.558" height="4.559"/>
				<circle id="connector0pin_10_" fill="none" stroke="#000000" stroke-width="3" cx="14.4" cy="9" r="2.279"/>
				<circle id="connector1pin_10_" fill="none" stroke="#000000" stroke-width="3" cx="14.4" cy="23.4" r="2.279"/>
			</g>
		</g>
	</g>
</g>
<g>
	
		<line fill="none" stroke="#000000" stroke-width="1.728" stroke-linecap="round" x1="108.055" y1="37.141" x2="107.995" y2="21.216"/>
</g>
<g>
	
		<line fill="none" stroke="#000000" stroke-width="1.728" stroke-linecap="round" x1="107.995" y1="21.216" x2="113.674" y2="15.578"/>
</g>
<g>
	
		<line fill="none" stroke="#000000" stroke-width="1.728" stroke-linecap="round" x1="100.805" y1="39.166" x2="100.857" y2="16.24"/>
</g>
<g>
	
		<line fill="none" stroke="#000000" stroke-width="1.728" stroke-linecap="round" x1="93.676" y1="55.141" x2="93.736" y2="46.386"/>
</g>
<g>
	
		<line fill="none" stroke="#000000" stroke-width="1.728" stroke-linecap="round" x1="93.736" y1="46.386" x2="100.805" y2="39.166"/>
</g>
<g>
	
		<line fill="none" stroke="#000000" stroke-width="1.728" stroke-linecap="round" x1="100.805" y1="53.605" x2="100.805" y2="60.824"/>
</g>
<g>
	
		<line fill="none" stroke="#000000" stroke-width="1.728" stroke-linecap="round" x1="106.6" y1="47.852" x2="100.805" y2="53.605"/>
</g>
<g>
	
		<line fill="none" stroke="#000000" stroke-width="1.728" stroke-linecap="round" x1="100.805" y1="60.824" x2="98.713" y2="62.937"/>
</g>
<g>
	<line fill="none" stroke="#000000" stroke-width="1.728" stroke-linecap="round" x1="72.071" y1="59.26" x2="72.078" y2="60.824"/>
</g>
<g>
	
		<line fill="none" stroke="#000000" stroke-width="1.728" stroke-linecap="round" x1="72.078" y1="60.824" x2="74.204" y2="62.945"/>
</g>
<g>
	<line fill="none" stroke="#000000" stroke-width="1.728" stroke-linecap="round" x1="84.402" y1="39.2" x2="81.323" y2="39.2"/>
</g>
<g>
	
		<line fill="none" stroke="#000000" stroke-width="1.728" stroke-linecap="round" x1="88.863" y1="17.655" x2="89.726" y2="12.433"/>
</g>
<g>
	<line fill="none" stroke="#000000" stroke-width="1.728" stroke-linecap="round" x1="56.375" y1="10.4" x2="66.402" y2="10.4"/>
</g>
<g>
	
		<line fill="none" stroke="#000000" stroke-width="3.456" stroke-linecap="round" x1="61.286" y1="17.673" x2="57.175" y2="17.631"/>
</g>
<g>
	
		<line fill="none" stroke="#000000" stroke-width="1.728" stroke-linecap="round" x1="68.468" y1="46.386" x2="77.203" y2="46.397"/>
</g>
<g>
	<line fill="none" stroke="#000000" stroke-width="1.728" stroke-linecap="round" x1="54.1" y1="60.799" x2="68.467" y2="46.386"/>
</g>
<g>
	
		<line fill="none" stroke="#000000" stroke-width="3.456" stroke-linecap="round" x1="50.524" y1="24.848" x2="50.951" y2="24.842"/>
</g>
<g>
	
		<line fill="none" stroke="#000000" stroke-width="3.456" stroke-linecap="round" x1="39.741" y1="14.075" x2="50.524" y2="24.848"/>
</g>
<g>
	
		<line fill="none" stroke="#000000" stroke-width="1.728" stroke-linecap="round" x1="68.468" y1="39.166" x2="64.858" y2="39.166"/>
</g>
<g>
	
		<line fill="none" stroke="#000000" stroke-width="1.728" stroke-linecap="round" x1="72.078" y1="35.557" x2="68.468" y2="39.166"/>
</g>
<g>
	
		<line fill="none" stroke="#000000" stroke-width="1.728" stroke-linecap="round" x1="72.066" y1="30.221" x2="72.078" y2="35.557"/>
</g>
<g>
	
		<line fill="none" stroke="#000000" stroke-width="1.728" stroke-linecap="round" x1="64.858" y1="39.166" x2="59.116" y2="44.939"/>
</g>
<g>
	<line fill="none" stroke="#000000" stroke-width="1.728" stroke-linecap="round" x1="49.175" y1="60.8" x2="54.1" y2="60.799"/>
</g>
<g>
	<line fill="none" stroke="#000000" stroke-width="1.728" stroke-linecap="round" x1="81.323" y1="46.4" x2="84.402" y2="46.4"/>
</g>
<g>
	
		<line fill="none" stroke="#000000" stroke-width="3.456" stroke-linecap="round" x1="14.542" y1="57.158" x2="14.498" y2="53.158"/>
</g>
<g>
	
		<line fill="none" stroke="#000000" stroke-width="3.456" stroke-linecap="round" x1="28.815" y1="10.475" x2="25.506" y2="14.882"/>
</g>
<g>
	<line fill="none" stroke="#000000" stroke-width="3.456" stroke-linecap="round" x1="46.819" y1="46.48" x2="46.843" y2="42.456"/>
</g>
<g>
	
		<line fill="none" stroke="#000000" stroke-width="3.456" stroke-linecap="round" x1="32.021" y1="50.026" x2="43.179" y2="50.121"/>
</g>
<g>
	<line fill="none" stroke="#000000" stroke-width="3.456" stroke-linecap="round" x1="43.179" y1="50.121" x2="46.82" y2="46.48"/>
</g>
<g>
	<line fill="none" stroke="#000000" stroke-width="3.456" stroke-linecap="round" x1="43.751" y1="60.8" x2="18.181" y2="60.799"/>
</g>
<g>
	
		<line fill="none" stroke="#000000" stroke-width="3.456" stroke-linecap="round" x1="18.181" y1="60.799" x2="14.542" y2="57.158"/>
</g>
<g>
	
		<line fill="none" stroke="#000000" stroke-width="3.456" stroke-linecap="round" x1="30.863" y1="10.454" x2="28.815" y2="10.475"/>
</g>
<g>
	<line fill="none" stroke="#000000" stroke-width="3.456" stroke-linecap="round" x1="54.1" y1="39.199" x2="49.973" y2="39.281"/>
</g>
<g>
	<line fill="none" stroke="#000000" stroke-width="3.456" stroke-linecap="round" x1="61.381" y1="31.918" x2="54.1" y2="39.199"/>
</g>
<g>
	<line fill="none" stroke="#000000" stroke-width="3.456" stroke-linecap="round" x1="61.381" y1="24.88" x2="61.381" y2="31.918"/>
</g>
<g>
	<line fill="none" stroke="#000000" stroke-width="3.456" stroke-linecap="round" x1="61.286" y1="17.673" x2="61.381" y2="24.88"/>
</g>
<g>
	
		<line fill="none" stroke="#000000" stroke-width="3.456" stroke-linecap="round" x1="68.468" y1="17.658" x2="61.286" y2="17.673"/>
</g>
<g>
	
		<line fill="none" stroke="#000000" stroke-width="3.456" stroke-linecap="round" x1="70.115" y1="19.281" x2="68.468" y2="17.658"/>
</g>
<g>
	<line fill="none" stroke="#000000" stroke-width="3.456" stroke-linecap="round" x1="14.542" y1="42.84" x2="14.498" y2="46.842"/>
</g>
<g>
	<line fill="none" stroke="#000000" stroke-width="3.456" stroke-linecap="round" x1="21.579" y1="35.559" x2="14.541" y2="42.84"/>
</g>
<g>
	<line fill="none" stroke="#000000" stroke-width="3.456" stroke-linecap="round" x1="32.553" y1="31.518" x2="28.86" y2="35.559"/>
</g>
<g>
	<line fill="none" stroke="#000000" stroke-width="3.456" stroke-linecap="round" x1="28.86" y1="35.559" x2="21.579" y2="35.559"/>
</g>
<g>
	<g>
		<g>
			<path fill="#FFFFFF" stroke="#000000" stroke-width="0.75" d="M15.974,26.56c-0.052-2.587-0.308-5.712-1.034-7.829
				c-0.22-0.637-0.604-1.687-1.108-1.848c-0.265-0.084-0.835-0.056-1.329-0.075c-2.489-0.099-5.133-0.139-6.98-0.148
				c-1.57-0.01-3.379-0.093-3.88,0.925c-0.641,1.308,0.933,1.685,1.771,1.955c-0.522,2.087-0.441,4.552-0.441,7.056
				c0,2.405,0.305,4.901,0.591,6.945c-1.047,0.169-2.434,0.686-1.884,1.956c0.53,1.227,2.961,1.08,4.727,0.998
				c2.477-0.114,5.343-0.139,7.461-0.259C15.217,33.725,16.049,30.38,15.974,26.56z"/>
			<path stroke="#000000" stroke-width="0.75" d="M13.868,36.233c-2.117,0.115-4.981,0.143-7.459,0.259
				c-1.769,0.082-4.197,0.229-4.726-0.997c-0.55-1.271,0.836-1.788,1.884-1.957C3.279,31.496,2.976,29,2.976,26.594
				c0-2.503-0.081-4.971,0.44-7.055c-0.842-0.272-2.409-0.651-1.77-1.956c0.496-1.018,2.309-0.933,3.88-0.924
				c1.849,0.01,4.489,0.047,6.98,0.147c0.494,0.019,1.063-0.014,1.328,0.072c0.504,0.161,0.891,1.211,1.109,1.85
				c0.728,2.115,0.982,5.239,1.034,7.827C16.049,30.38,15.217,33.725,13.868,36.233z M8.92,17.291c-1.806,0-3.555-0.176-5.168-0.073
				c-0.642,0.04-1.65,0.163-1.736,0.774c-0.097,0.662,1.122,0.931,1.774,1c0.118,0.114,0.049-0.267,0.181-0.258
				c-0.515,3.52-0.574,8.058-0.217,11.819c0.122,1.308,0.44,2.557,0.293,3.764c-0.026-0.213-0.132-0.175-0.293-0.182
				c-0.567-0.04-1.598,0.418-1.626,0.886c-0.041,0.678,1.137,0.976,1.774,1.034c0.753,0.067,1.602,0,2.436-0.038
				c2.492-0.108,5.208-0.014,7.534-0.074c1.166-2.258,1.736-5.728,1.772-9.196c0.037-3.563-0.266-7.092-1.551-9.415
				C12.543,17.363,10.771,17.291,8.92,17.291z"/>
			<path fill="#FFFFFF" stroke="#000000" stroke-width="0.75" d="M14.091,17.327c1.285,2.327,1.589,5.852,1.553,9.417
				c-0.039,3.469-0.606,6.938-1.775,9.196c-2.325,0.061-5.038-0.035-7.532,0.075c-0.835,0.037-1.685,0.104-2.438,0.037
				c-0.637-0.06-1.813-0.356-1.772-1.033c0.028-0.466,1.062-0.925,1.626-0.887c0.162,0.011,0.268-0.025,0.293,0.183
				c0.148-1.211-0.172-2.458-0.293-3.766c-0.355-3.761-0.296-8.299,0.221-11.817c-0.139-0.011-0.063,0.376-0.185,0.257
				C3.137,18.92,1.92,18.65,2.017,17.991c0.089-0.612,1.096-0.736,1.735-0.777c1.614-0.1,3.363,0.074,5.17,0.074
				C10.771,17.291,12.543,17.363,14.091,17.327z M6.41,31.509c0.689,1.062,2.155,2.484,4.137,1.958
				c2.104-0.557,3.578-3.147,3.95-5.43c0.578-3.549-0.654-7.541-2.954-8.788c-1.072-0.581-2.57-0.479-3.545,0.181
				c-1.926,1.31-2.99,4.419-2.846,7.571C5.239,28.883,5.645,30.329,6.41,31.509z"/>
			<path stroke="#000000" stroke-width="0.75" d="M5.153,27.001c-0.145-3.152,0.92-6.261,2.846-7.571
				c0.975-0.661,2.474-0.767,3.545-0.182c2.299,1.244,3.532,5.238,2.956,8.788c-0.376,2.283-1.852,4.872-3.953,5.428
				c-1.981,0.524-3.448-0.896-4.138-1.957C5.645,30.329,5.239,28.883,5.153,27.001z M5.706,28.887
				c0.485,1.814,1.402,3.594,2.991,4.248c0.915,0.378,1.926,0.219,2.621-0.185c2.045-1.189,3.3-4.705,3.065-7.72
				c-0.127-1.646-0.671-3.285-1.439-4.43c-0.524-0.78-1.554-1.638-2.659-1.774c-0.952-0.116-2.166,0.437-2.805,1.071
				c-1.289,1.273-2.272,4.065-2.107,6.647C5.428,27.577,5.535,28.236,5.706,28.887z"/>
			<path fill="#FFFFFF" stroke="#000000" stroke-width="0.75" d="M5.377,26.743c-0.169-2.583,0.818-5.373,2.104-6.647
				c0.642-0.636,1.85-1.19,2.806-1.071c1.105,0.139,2.136,0.995,2.66,1.774c0.769,1.143,1.313,2.782,1.44,4.43
				c0.23,3.014-1.023,6.529-3.065,7.72c-0.697,0.408-1.707,0.563-2.622,0.185c-1.588-0.657-2.507-2.434-2.994-4.247
				C5.535,28.236,5.428,27.577,5.377,26.743z M8.404,21.907c-0.036-0.555-0.986-0.503-0.851,0.147
				C7.67,22.621,8.439,22.429,8.404,21.907z M7.998,31.213c0.533-0.016,0.574-0.917,0-0.925c-0.283-0.002-0.479,0.192-0.407,0.554
				C7.641,31.087,7.75,31.217,7.998,31.213z M9.363,25.193c0.139,0.755-0.054,1.552-0.259,2.029
				c-0.227,0.534-0.742,0.999-0.626,1.736c0.174,1.088,1.623,1.385,2.586,0.998c2.361-0.954,3.271-4.813,1.404-6.98
				c-0.563-0.653-1.571-1.394-2.622-1.332c-0.938,0.06-1.577,0.664-1.44,1.552C8.549,24.139,9.199,24.325,9.363,25.193z"/>
			<path stroke="#000000" stroke-width="0.75" d="M7.553,22.055c-0.138-0.653,0.815-0.698,0.852-0.147
				C8.439,22.429,7.67,22.621,7.553,22.055z"/>
			<path stroke="#000000" stroke-width="0.75" d="M7.59,30.844c-0.074-0.362,0.124-0.557,0.406-0.554
				c0.576,0.008,0.54,0.908,0,0.925C7.75,31.217,7.641,31.087,7.59,30.844z"/>
			<path fill="#FFFFFF" stroke="#000000" stroke-width="0.75" d="M8.847,23.753c0.285-0.231,0.935-0.231,0.997,0.149
				c0.046,0.285-0.254,0.511-0.48,0.663C9.259,24.226,9.031,24.013,8.847,23.753z"/>
			<path fill="#FFFFFF" stroke="#000000" stroke-width="0.75" d="M8.92,28.111c0.107-0.26,0.319-0.418,0.37-0.736
				c0.311,0.153,0.657,0.441,0.555,0.886C9.501,28.375,9.182,28.192,8.92,28.111z"/>
			<path fill="#FFFFFF" stroke="#000000" stroke-width="0.75" d="M9.438,27.113c0.073-0.297,0.166-0.572,0.218-0.888
				c0.261,0.144,0.698,0.377,0.628,0.702C10.227,27.223,9.781,27.201,9.438,27.113z"/>
			<path fill="#FFFFFF" stroke="#000000" stroke-width="0.75" d="M9.511,24.824c0.87-0.069,1.301,1.024,0.185,1.109
				C9.64,25.558,9.64,25.127,9.511,24.824z"/>
			<path fill="#FFFFFF" stroke="#000000" stroke-width="0.75" d="M11.912,25.822c0.146,0.098-0.014,0.299,0.036,0.516
				C11.793,26.27,11.97,26.025,11.912,25.822z"/>
			<path fill="#FFFFFF" stroke="#000000" stroke-width="0.75" d="M12.907,24.233c0.456,0.933,0.402,2.564-0.037,3.473
				C11.988,27.094,11.907,24.779,12.907,24.233z"/>
			<path stroke="#000000" stroke-width="0.75" d="M8.404,23.2c-0.139-0.888,0.501-1.492,1.438-1.552
				c1.056-0.063,2.063,0.679,2.625,1.332c1.868,2.168,0.956,6.027-1.403,6.98c-0.961,0.387-2.412,0.091-2.586-0.998
				c-0.116-0.736,0.401-1.205,0.626-1.735c0.208-0.48,0.402-1.276,0.259-2.031C9.199,24.325,8.549,24.139,8.404,23.2z M9.363,24.565
				c0.228-0.149,0.526-0.377,0.479-0.663c-0.063-0.378-0.711-0.378-0.996-0.148C9.031,24.013,9.259,24.226,9.363,24.565z
				 M9.844,28.258c0.102-0.443-0.244-0.733-0.556-0.886c-0.049,0.318-0.261,0.476-0.369,0.737
				C9.182,28.192,9.501,28.375,9.844,28.258z M10.286,26.93c0.07-0.327-0.369-0.557-0.628-0.702
				c-0.054,0.315-0.147,0.591-0.218,0.889C9.781,27.201,10.227,27.223,10.286,26.93z M9.696,25.933
				c1.117-0.085,0.689-1.178-0.182-1.109C9.64,25.127,9.64,25.558,9.696,25.933z M11.948,26.339
				c-0.049-0.218,0.114-0.418-0.036-0.517C11.97,26.025,11.793,26.27,11.948,26.339z M12.871,27.706
				c0.438-0.909,0.495-2.54,0.038-3.474C11.907,24.779,11.988,27.094,12.871,27.706z"/>
		</g>
	</g>
	<path fill="#FFFFFF" stroke="#000000" stroke-width="0.75" d="M8.825,28.306c0,0-0.368,0.761,0.27,1.202s1.473,0.491,2.207,0.024
		c0.736-0.465,1.3-1.201,1.424-1.57c-0.27-0.221-0.739-0.981-0.76-1.472c-0.025-0.564-0.123-1.472,0.49-2.207
		c0.294-0.295,0.294-0.295,0.294-0.295c-0.147-0.318-0.466-0.933-1.055-1.349c-0.588-0.417-0.883-0.613-1.545-0.699
		c-0.373-0.048-1.079,0-1.361,0.54c-0.092,0.175-0.245,0.479-0.087,0.994c0.271-0.098,0.959-0.358,1.288,0.135
		c0.221,0.331,0.111,0.589-0.209,0.92c0.196,0.025,0.844,0.441,0.822,0.908c-0.024,0.54-0.614,0.699-0.614,0.699
		c0.344,0.208,0.639,0.491,0.517,0.858c0,0-0.05,0.355-0.761,0.393c0.355,0.282,0.463,0.807,0.307,0.994
		C9.734,28.759,8.825,28.306,8.825,28.306z"/>
</g>
</svg>
